<svg version="1.1" preserveAspectRatio="xMidYMid meet" xmlns="http://www.w3.org/2000/svg" xmlns:xlink="http://www.w3.org/1999/xlink" viewBox="-273.063 0.000 1546.125 1000.000" style="cursor: pointer;"><defs><path d="M206.780,500.000 A85.857,85.857 0 1 0 35.065,500.000 A85.857,85.857 0 1 0 206.780,500.000 Z" stroke-linecap="round" stroke-linejoin="round" stroke-miterlimit="25" id="def-10ab5b06-dce1-4ffc-b975-8ba4e9e8ab72"></path><g id="def-9b952b6f-1100-4f2c-9d4d-eaf49bccfc87"><use xlink:href="#def-10ab5b06-dce1-4ffc-b975-8ba4e9e8ab72" fill="none" stroke="#fff" stroke-width="3.645"></use><use xlink:href="#def-5048b3c3-f78e-495c-85a5-a2928dc75853"></use></g><path d="M66.779,468.212 L66.779,531.788 L72.955,531.788 L72.955,468.212 L66.779,468.212 Z M77.315,497.639 L77.315,503.542 L89.394,503.542 Q101.383,503.270,104.108,493.642 L104.108,493.642 Q105.107,490.191,105.107,485.741 L105.107,485.741 Q105.107,469.302,90.666,468.303 L90.666,468.303 Q90.030,468.212,89.394,468.212 L89.394,468.212 L77.315,468.212 L77.315,474.115 L87.850,474.115 Q97.114,474.115,98.477,482.108 L98.477,482.108 Q98.749,483.743,98.749,485.650 L98.749,485.650 Q98.749,496.549,90.030,497.548 L90.030,497.548 Q89.031,497.639,87.941,497.639 L87.941,497.639 L77.315,497.639 Z M111.126,468.212 L104.950,468.212 L123.388,531.788 L125.567,531.788 L127.656,524.886 L111.126,468.212 Z M136.648,468.212 L126.203,506.812 L128.837,515.894 L129.745,515.894 Q130.109,514.713,133.651,501.816 L133.651,501.816 Q137.920,486.195,139.736,479.474 L139.736,479.474 L153.814,531.788 L155.993,531.788 L158.173,525.249 L142.824,468.212 L136.648,468.212 Z M168.890,468.212 L157.447,506.903 L160.081,515.894 L160.989,515.894 L175.066,468.212 L168.890,468.212 Z" fill="#fff" id="def-5048b3c3-f78e-495c-85a5-a2928dc75853"></path><g id="def-9ec19f38-1e6b-49b0-ba3b-8a6ce38e3392"><use xlink:href="#def-10ab5b06-dce1-4ffc-b975-8ba4e9e8ab72" stroke-width="7.898"></use></g><path d="M256.713,492.325 L256.713,416.525 Q260.870,415.540,265.683,415.212 Q270.495,414.884,275.199,414.884 L275.199,414.884 Q280.230,414.884,285.426,415.868 Q290.621,416.853,294.887,419.478 Q299.153,422.103,301.832,426.697 Q304.512,431.291,304.512,438.400 L304.512,438.400 Q304.512,445.401,301.997,450.213 Q299.481,455.026,295.324,458.034 Q291.168,461.042,285.808,462.355 Q280.449,463.667,274.761,463.667 L274.761,463.667 Q274.214,463.667,272.956,463.667 Q271.698,463.667,270.331,463.612 Q268.964,463.558,267.651,463.448 Q266.339,463.339,265.792,463.230 L265.792,463.230 L265.792,492.325 L256.713,492.325 Z M275.417,422.759 L275.417,422.759 Q272.573,422.759,269.948,422.869 Q267.323,422.978,265.792,423.415 L265.792,423.415 L265.792,455.136 Q266.339,455.354,267.542,455.409 Q268.745,455.464,270.058,455.518 Q271.370,455.573,272.573,455.573 Q273.777,455.573,274.324,455.573 L274.324,455.573 Q278.042,455.573,281.707,454.862 Q285.371,454.151,288.324,452.292 Q291.277,450.432,293.082,447.041 Q294.887,443.651,294.887,438.400 L294.887,438.400 Q294.887,433.916,293.191,430.908 Q291.496,427.900,288.707,426.095 Q285.918,424.291,282.418,423.525 Q278.917,422.759,275.417,422.759 Z M365.218,492.325 L356.468,492.325 L356.468,461.151 Q356.468,456.886,355.975,453.659 Q355.483,450.432,354.171,448.299 Q352.858,446.166,350.616,445.073 Q348.373,443.979,344.764,443.979 L344.764,443.979 Q339.623,443.979,335.467,447.315 Q331.310,450.651,330.107,455.901 L330.107,455.901 L330.107,492.325 L321.357,492.325 L321.357,415.759 L330.107,415.759 L330.107,443.760 L330.545,443.760 Q333.388,440.369,337.381,438.346 Q341.373,436.322,347.280,436.322 L347.280,436.322 Q351.874,436.322,355.264,437.361 Q358.655,438.400,360.897,441.026 Q363.140,443.651,364.179,448.081 Q365.218,452.510,365.218,459.292 L365.218,459.292 L365.218,492.325 Z M387.422,492.325 L387.422,437.635 L396.172,437.635 L396.172,492.325 L387.422,492.325 Z M385.563,421.009 L385.563,421.009 Q385.563,418.493,387.258,416.689 Q388.953,414.884,391.578,414.884 L391.578,414.884 Q394.204,414.884,396.063,416.689 Q397.922,418.493,397.922,421.009 L397.922,421.009 Q397.922,423.525,396.063,425.166 Q394.204,426.806,391.578,426.806 L391.578,426.806 Q388.953,426.806,387.258,425.166 Q385.563,423.525,385.563,421.009 Z M428.986,415.759 L428.986,478.871 Q428.986,482.699,430.299,484.340 Q431.611,485.981,434.018,485.981 L434.018,485.981 Q435.440,485.981,437.080,485.762 Q438.721,485.543,440.799,484.777 L440.799,484.777 L441.784,491.668 Q440.034,492.543,436.916,493.090 Q433.799,493.637,431.502,493.637 L431.502,493.637 Q426.580,493.637,423.408,490.848 Q420.236,488.059,420.236,481.387 L420.236,481.387 L420.236,415.759 L428.986,415.759 Z M457.425,492.325 L457.425,437.635 L466.175,437.635 L466.175,492.325 L457.425,492.325 Z M455.565,421.009 L455.565,421.009 Q455.565,418.493,457.261,416.689 Q458.956,414.884,461.581,414.884 L461.581,414.884 Q464.206,414.884,466.066,416.689 Q467.925,418.493,467.925,421.009 L467.925,421.009 Q467.925,423.525,466.066,425.166 Q464.206,426.806,461.581,426.806 L461.581,426.806 Q458.956,426.806,457.261,425.166 Q455.565,423.525,455.565,421.009 Z M489.254,514.201 L489.254,437.635 L495.270,437.635 L496.911,444.198 L497.348,444.198 Q499.864,440.369,503.857,438.346 Q507.849,436.322,512.990,436.322 L512.990,436.322 Q523.928,436.322,529.287,442.776 Q534.647,449.229,534.647,463.886 L534.647,463.886 Q534.647,470.777,532.842,476.300 Q531.037,481.824,527.756,485.652 Q524.475,489.481,519.826,491.559 Q515.177,493.637,509.490,493.637 L509.490,493.637 Q505.443,493.637,503.091,493.145 Q500.739,492.653,498.005,491.450 L498.005,491.450 L498.005,514.201 L489.254,514.201 Z M511.349,443.979 L511.349,443.979 Q505.771,443.979,502.544,446.877 Q499.317,449.776,498.005,455.682 L498.005,455.682 L498.005,482.809 Q499.974,484.340,502.489,485.160 Q505.005,485.981,509.161,485.981 L509.161,485.981 Q516.709,485.981,521.139,480.348 Q525.568,474.714,525.568,463.777 L525.568,463.777 Q525.568,459.292,524.803,455.628 Q524.037,451.964,522.342,449.393 Q520.646,446.823,517.966,445.401 Q515.287,443.979,511.349,443.979 Z M552.804,514.201 L552.804,437.635 L558.820,437.635 L560.460,444.198 L560.898,444.198 Q563.414,440.369,567.406,438.346 Q571.398,436.322,576.539,436.322 L576.539,436.322 Q587.477,436.322,592.837,442.776 Q598.196,449.229,598.196,463.886 L598.196,463.886 Q598.196,470.777,596.392,476.300 Q594.587,481.824,591.305,485.652 Q588.024,489.481,583.375,491.559 Q578.727,493.637,573.039,493.637 L573.039,493.637 Q568.992,493.637,566.640,493.145 Q564.289,492.653,561.554,491.450 L561.554,491.450 L561.554,514.201 L552.804,514.201 Z M574.899,443.979 L574.899,443.979 Q569.320,443.979,566.094,446.877 Q562.867,449.776,561.554,455.682 L561.554,455.682 L561.554,482.809 Q563.523,484.340,566.039,485.160 Q568.555,485.981,572.711,485.981 L572.711,485.981 Q580.258,485.981,584.688,480.348 Q589.118,474.714,589.118,463.777 L589.118,463.777 Q589.118,459.292,588.352,455.628 Q587.587,451.964,585.891,449.393 Q584.196,446.823,581.516,445.401 Q578.836,443.979,574.899,443.979 Z M652.011,415.759 L665.793,467.058 L667.543,479.746 L667.652,479.746 L669.512,466.839 L685.263,415.759 L689.638,415.759 L705.498,467.058 L707.357,479.746 L707.467,479.746 L709.435,466.839 L722.342,415.759 L731.202,415.759 L709.873,493.528 L704.841,493.528 L689.310,442.229 L687.341,430.635 L686.794,430.635 L684.825,442.338 L669.293,493.528 L664.262,493.528 L642.386,415.759 L652.011,415.759 Z M746.734,448.245 L743.999,441.682 Q748.156,439.166,753.679,437.963 Q759.203,436.760,765.219,436.760 L765.219,436.760 Q770.907,436.760,774.352,438.291 Q777.798,439.822,779.602,442.283 Q781.407,444.744,782.009,447.698 Q782.610,450.651,782.610,453.604 L782.610,453.604 Q782.610,460.167,782.282,466.402 Q781.954,472.636,781.954,478.215 L781.954,478.215 Q781.954,482.262,782.282,485.871 Q782.610,489.481,783.485,492.543 L783.485,492.543 L777.032,492.543 L774.735,484.887 L774.188,484.887 Q773.204,486.418,771.727,487.895 Q770.250,489.371,768.172,490.520 Q766.094,491.668,763.360,492.434 Q760.625,493.200,757.125,493.200 L757.125,493.200 Q753.625,493.200,750.617,492.106 Q747.609,491.012,745.421,488.989 Q743.234,486.965,741.976,484.121 Q740.718,481.277,740.718,477.668 L740.718,477.668 Q740.718,472.855,742.687,469.628 Q744.656,466.402,748.210,464.488 Q751.765,462.573,756.742,461.753 Q761.719,460.933,767.735,460.933 L767.735,460.933 Q769.266,460.933,770.743,460.933 Q772.219,460.933,773.751,461.151 L773.751,461.151 Q774.079,457.870,774.079,455.245 L774.079,455.245 Q774.079,449.229,771.672,446.823 Q769.266,444.416,762.922,444.416 L762.922,444.416 Q761.063,444.416,758.930,444.690 Q756.797,444.963,754.554,445.455 Q752.312,445.948,750.289,446.659 Q748.265,447.370,746.734,448.245 L746.734,448.245 Z M759.531,485.543 L759.531,485.543 Q762.594,485.543,765.000,484.723 Q767.407,483.902,769.157,482.645 Q770.907,481.387,772.055,479.855 Q773.204,478.324,773.751,476.902 L773.751,476.902 L773.751,467.824 Q772.219,467.714,770.633,467.660 Q769.047,467.605,767.516,467.605 L767.516,467.605 Q764.125,467.605,760.899,467.988 Q757.672,468.370,755.211,469.410 Q752.750,470.449,751.273,472.253 Q749.796,474.058,749.796,476.793 L749.796,476.793 Q749.796,480.621,752.531,483.082 Q755.265,485.543,759.531,485.543 Z M813.237,415.759 L813.237,478.871 Q813.237,482.699,814.549,484.340 Q815.862,485.981,818.268,485.981 L818.268,485.981 Q819.690,485.981,821.331,485.762 Q822.971,485.543,825.050,484.777 L825.050,484.777 L826.034,491.668 Q824.284,492.543,821.167,493.090 Q818.049,493.637,815.752,493.637 L815.752,493.637 Q810.830,493.637,807.658,490.848 Q804.486,488.059,804.486,481.387 L804.486,481.387 L804.486,415.759 L813.237,415.759 Z M832.597,445.291 L832.597,437.635 L841.128,437.635 L841.128,426.806 L849.879,424.291 L849.879,437.635 L864.754,437.635 L864.754,445.291 L849.879,445.291 L849.879,475.590 Q849.879,481.277,851.301,483.629 Q852.723,485.981,856.113,485.981 L856.113,485.981 Q858.957,485.981,860.926,485.379 Q862.895,484.777,865.301,483.793 L865.301,483.793 L867.270,490.465 Q864.317,491.887,860.817,492.762 Q857.317,493.637,853.270,493.637 L853.270,493.637 Q846.597,493.637,843.863,489.864 Q841.128,486.090,841.128,477.230 L841.128,477.230 L841.128,445.291 L832.597,445.291 Z M917.913,481.605 L921.194,487.949 Q917.913,490.575,912.936,492.106 Q907.959,493.637,902.381,493.637 L902.381,493.637 Q896.146,493.637,891.552,491.614 Q886.958,489.590,884.005,485.817 Q881.052,482.043,879.630,476.793 Q878.208,471.542,878.208,464.980 L878.208,464.980 Q878.208,450.979,884.443,443.651 Q890.677,436.322,902.272,436.322 L902.272,436.322 Q905.990,436.322,909.709,437.143 Q913.428,437.963,916.382,440.260 Q919.335,442.557,921.194,446.768 Q923.054,450.979,923.054,457.870 L923.054,457.870 Q923.054,461.480,922.397,465.855 L922.397,465.855 L887.287,465.855 Q887.287,470.667,888.271,474.386 Q889.255,478.105,891.334,480.676 Q893.412,483.246,896.748,484.613 Q900.084,485.981,904.897,485.981 L904.897,485.981 Q908.616,485.981,912.334,484.668 Q916.053,483.355,917.913,481.605 L917.913,481.605 Z M902.381,443.979 L902.381,443.979 Q895.928,443.979,892.045,447.370 Q888.162,450.760,887.396,458.964 L887.396,458.964 L914.522,458.964 Q914.522,450.651,911.350,447.315 Q908.178,443.979,902.381,443.979 Z M968.884,437.635 L967.024,446.057 Q963.743,444.963,960.790,444.963 L960.790,444.963 Q956.086,444.963,953.352,447.534 Q950.617,450.104,949.961,454.042 L949.961,454.042 L949.961,492.325 L941.211,492.325 L941.211,437.635 L947.336,437.635 L948.977,444.307 L949.414,444.307 Q951.492,440.588,954.391,438.565 Q957.290,436.541,961.774,436.541 L961.774,436.541 Q964.946,436.541,968.884,437.635 L968.884,437.635 Z" id="def-cede6645-1651-4fb7-851e-6aa7f91f4969"></path><path d="M265.343,576.857 C271.688,576.857,274.593,572.648,274.593,565.513 L274.593,546.371 L259.916,546.371 L259.916,548.315 L272.499,548.315 L272.499,565.555 C272.499,571.708,270.320,574.870,265.343,574.870 C260.920,574.870,258.271,572.029,257.972,567.735 L255.900,567.948 C256.285,573.182,259.810,576.857,265.343,576.857 Z M294.979,554.917 C291.326,554.917,288.934,556.327,286.861,559.211 L288.421,560.364 C290.066,557.972,292.010,556.732,294.979,556.732 C299.444,556.732,301.367,559.061,301.367,563.825 L301.367,564.402 L295.129,564.402 C289.361,564.402,286.028,566.260,286.028,570.490 C286.028,574.464,288.955,576.857,293.270,576.857 C296.688,576.857,299.679,575.126,301.388,571.751 L301.517,576.558 L303.247,576.558 L303.247,563.483 C303.247,558.078,300.320,554.917,294.979,554.917 Z M293.612,575.083 C290.130,575.083,288.100,573.310,288.100,570.554 C288.100,567.585,290.408,565.961,295.214,565.961 L301.367,565.961 L301.367,569.038 C300.042,572.798,297.436,575.083,293.612,575.083 Z M321.369,576.558 L323.163,576.558 L331.901,555.216 L329.658,555.216 L322.266,574.015 L314.853,555.216 L312.653,555.216 Z M348.827,554.917 C345.174,554.917,342.781,556.327,340.709,559.211 L342.268,560.364 C343.913,557.972,345.857,556.732,348.827,556.732 C353.292,556.732,355.214,559.061,355.214,563.825 L355.214,564.402 L348.976,564.402 C343.208,564.402,339.875,566.260,339.875,570.490 C339.875,574.464,342.802,576.857,347.118,576.857 C350.536,576.857,353.527,575.126,355.236,571.751 L355.364,576.558 L357.094,576.558 L357.094,563.483 C357.094,558.078,354.167,554.917,348.827,554.917 Z M347.459,575.083 C343.977,575.083,341.948,573.310,341.948,570.554 C341.948,567.585,344.255,565.961,349.062,565.961 L355.214,565.961 L355.214,569.038 C353.890,572.798,351.283,575.083,347.459,575.083 Z M377.972,576.814 C383.356,576.814,387.436,573.417,387.436,568.440 C387.436,558.506,371.627,561.155,371.627,553.485 C371.627,550.302,374.212,547.974,377.694,547.974 C380.728,547.974,382.843,549.213,384.360,551.883 L386.111,550.794 C384.231,547.525,381.454,546.072,377.758,546.072 C373.144,546.072,369.534,549.084,369.534,553.571 C369.534,562.864,385.342,560.129,385.342,568.589 C385.342,572.221,382.394,574.934,378.015,574.934 C373.699,574.934,370.538,572.541,369.897,568.226 L367.803,568.717 C368.679,573.887,372.823,576.814,377.972,576.814 Z M406.583,576.857 C410.407,576.857,413.420,574.742,414.701,571.110 L412.843,570.405 C411.881,573.268,409.574,574.977,406.562,574.977 C401.627,574.977,399.277,570.704,399.277,565.919 C399.277,561.176,401.606,556.775,406.541,556.775 C409.467,556.775,411.839,558.527,412.992,561.390 L414.915,560.642 C413.355,556.946,410.322,554.917,406.541,554.917 C400.303,554.917,397.226,560.322,397.226,565.919 C397.226,572.093,400.730,576.857,406.583,576.857 Z M425.517,576.558 L427.504,576.558 L427.504,565.043 C427.504,559.125,431.136,556.903,434.126,556.903 C434.981,556.903,435.814,557.096,436.583,557.459 L437.523,555.771 C436.626,555.194,435.494,554.917,434.383,554.917 C431.776,554.917,428.636,556.455,427.504,559.980 L427.504,555.216 L425.517,555.216 Z M447.057,550.601 L449.172,550.601 L449.172,546.371 L447.057,546.371 Z M447.100,576.558 L449.108,576.558 L449.108,555.216 L447.100,555.216 Z M462.103,585.402 L464.175,585.402 L464.175,571.003 C465.457,574.549,468.576,576.857,472.336,576.857 C478.040,576.857,481.351,572.007,481.351,565.919 C481.351,559.809,478.040,554.917,472.357,554.917 C468.619,554.917,465.457,557.202,464.175,560.791 L464.175,555.216 L462.103,555.216 Z M471.930,574.977 C467.187,574.977,464.026,571.067,464.026,565.919 C464.026,560.727,467.187,556.818,471.930,556.818 C476.673,556.818,479.322,560.770,479.322,565.919 C479.322,571.024,476.673,574.977,471.930,574.977 Z M498.811,576.857 C499.858,576.857,500.883,576.664,501.503,576.493 L501.438,574.613 C500.883,574.827,500.007,575.019,499.110,575.019 C496.546,575.019,495.286,573.588,495.286,570.255 L495.286,556.946 L501.460,556.946 L501.460,555.216 L495.286,555.216 L495.286,547.205 L493.299,548.743 L493.299,555.216 L489.689,555.216 L489.689,556.946 L493.256,556.946 L493.256,570.554 C493.256,574.699,495.136,576.857,498.811,576.857 Z M529.308,576.558 L548.919,576.558 L548.919,574.549 L531.423,574.549 L531.423,562.351 L547.018,562.351 L547.018,560.407 L531.423,560.407 L531.423,548.315 L548.919,548.315 L548.919,546.371 L529.308,546.371 Z M560.504,576.558 L562.534,576.558 L562.534,563.611 C562.534,559.317,565.012,556.818,568.857,556.818 C572.639,556.818,574.625,559.211,574.625,563.462 L574.625,576.558 L576.633,576.558 L576.633,562.800 C576.527,558.142,574.134,554.917,569.349,554.917 C566.294,554.917,563.751,556.455,562.534,559.211 L562.534,555.216 L560.504,555.216 Z M599.883,574.015 L594.585,574.015 C591.444,574.015,590.013,573.033,589.949,570.982 C589.885,569.892,590.291,568.995,591.166,568.311 C592.512,569.294,594.285,569.849,596.272,569.849 C600.865,569.849,604.262,566.880,604.262,562.522 C604.262,560.898,603.813,559.446,603.023,558.249 L606.206,555.429 L605.138,554.105 L601.933,556.967 C600.545,555.686,598.601,554.917,596.294,554.917 C591.658,554.917,588.240,558.014,588.240,562.415 C588.240,564.295,588.859,565.940,589.970,567.200 C588.646,568.205,587.983,569.572,588.047,571.153 C588.112,573.246,589.244,574.549,590.803,575.212 L587.364,577.968 C587.257,578.373,587.214,578.779,587.214,579.207 C587.214,583.671,591.124,586.299,597.169,586.299 C602.745,586.299,605.928,583.714,605.928,579.677 C605.928,576.173,603.963,574.015,599.883,574.015 Z M596.315,556.583 C599.904,556.583,602.297,559.040,602.297,562.479 C602.297,565.833,599.904,568.162,596.294,568.162 C592.662,568.162,590.248,565.812,590.248,562.458 C590.248,559.040,592.683,556.583,596.315,556.583 Z M597.148,584.611 C591.871,584.611,589.137,582.561,589.137,579.164 L589.137,578.544 L592.106,575.618 C592.598,575.703,593.110,575.746,593.623,575.746 L599.156,575.746 C602.895,575.746,603.984,577.583,603.984,579.805 C603.984,583.244,600.908,584.611,597.148,584.611 Z M616.552,550.601 L618.667,550.601 L618.667,546.371 L616.552,546.371 Z M616.595,576.558 L618.603,576.558 L618.603,555.216 L616.595,555.216 Z M631.533,576.558 L633.563,576.558 L633.563,563.611 C633.563,559.317,636.041,556.818,639.886,556.818 C643.668,556.818,645.655,559.211,645.655,563.462 L645.655,576.558 L647.663,576.558 L647.663,562.800 C647.556,558.142,645.163,554.917,640.378,554.917 C637.323,554.917,634.781,556.455,633.563,559.211 L633.563,555.216 L631.533,555.216 Z M668.092,576.857 C671.467,576.857,673.732,575.874,676.167,573.417 L674.736,572.114 C672.664,574.250,670.869,574.977,668.092,574.977 C663.477,574.977,660.679,571.751,660.551,566.325 L676.637,566.325 C676.723,566.004,676.765,565.150,676.765,564.487 C676.765,560.450,674.544,554.917,667.729,554.917 C661.854,554.917,658.414,559.809,658.414,566.004 C658.414,572.264,661.961,576.857,668.092,576.857 Z M660.551,564.786 C660.871,559.980,663.542,556.668,667.707,556.668 C672.621,556.668,674.544,560.343,674.714,563.462 C674.757,563.868,674.757,564.359,674.714,564.786 Z M695.891,576.857 C699.267,576.857,701.531,575.874,703.967,573.417 L702.535,572.114 C700.463,574.250,698.669,574.977,695.891,574.977 C691.277,574.977,688.478,571.751,688.350,566.325 L704.437,566.325 C704.522,566.004,704.565,565.150,704.565,564.487 C704.565,560.450,702.343,554.917,695.528,554.917 C689.653,554.917,686.214,559.809,686.214,566.004 C686.214,572.264,689.760,576.857,695.891,576.857 Z M688.350,564.786 C688.671,559.980,691.341,556.668,695.507,556.668 C700.420,556.668,702.343,560.343,702.514,563.462 C702.557,563.868,702.557,564.359,702.514,564.786 Z M715.680,576.558 L717.666,576.558 L717.666,565.043 C717.666,559.125,721.298,556.903,724.289,556.903 C725.144,556.903,725.977,557.096,726.746,557.459 L727.686,555.771 C726.789,555.194,725.656,554.917,724.545,554.917 C721.939,554.917,718.799,556.455,717.666,559.980 L717.666,555.216 L715.680,555.216 Z" id="def-708fe17a-ce17-4809-8434-08ed1d8f5f0d"></path><radialGradient id="gradient-d2bd19a3-6493-4900-bcbf-23c1a51ebedf" gradientUnits="objectBoundingBox" gradientTransform="translate(0.5, 0.5) scale(1.001, 1) translate(-0.5, -0.5)" cx="0.215" cy="0.215" r="0.902"><stop offset="0.000" stop-color="#ffffff" stop-opacity="1"></stop><stop offset="0.250" stop-color="#ffffff" stop-opacity="1"></stop><stop offset="0.500" stop-color="#ffffff" stop-opacity="1"></stop><stop offset="0.750" stop-color="#f3ebee" stop-opacity="1"></stop><stop offset="1.000" stop-color="#e9dbe0" stop-opacity="1"></stop></radialGradient><mask id="mask-27f7c461-4a29-41de-baf9-1dfbdd6ccf9e" x="-107.768" y="-107.896" width="431.071" height="431.583" stroke-width="0"><rect x="13.155" y="392.104" width="215.536" height="215.792" fill="#000"></rect><use xlink:href="#def-9ec19f38-1e6b-49b0-ba3b-8a6ce38e3392" fill="#fff" stroke="#fff"></use></mask><linearGradient id="gradient-0b9eb78c-dd2d-464c-a148-cdf6d0ae1b68" gradientUnits="objectBoundingBox" x1="1.000" y1="0.500" x2="0.000" y2="0.500"><stop offset="0.000" stop-color="#052022" stop-opacity="1"></stop><stop offset="0.125" stop-color="#061b1b" stop-opacity="1"></stop><stop offset="0.250" stop-color="#051514" stop-opacity="1"></stop><stop offset="0.375" stop-color="#030d0b" stop-opacity="1"></stop><stop offset="0.500" stop-color="#000000" stop-opacity="1"></stop><stop offset="0.625" stop-color="#000000" stop-opacity="1"></stop><stop offset="0.750" stop-color="#000000" stop-opacity="1"></stop><stop offset="0.875" stop-color="#000000" stop-opacity="1"></stop><stop offset="1.000" stop-color="#000000" stop-opacity="1"></stop></linearGradient><mask id="mask-1d606b63-3c1b-4257-bfef-fa92b3c65d42" x="-107.768" y="-107.896" width="431.071" height="431.583" stroke-width="0"><rect x="13.155" y="392.104" width="215.536" height="215.792" fill="#000"></rect><use xlink:href="#def-9b952b6f-1100-4f2c-9d4d-eaf49bccfc87" fill="#fff" stroke="#fff"></use></mask><mask id="mask-17362315-bb07-41f3-9f59-7413bbe5253e" x="-366.801" y="-94.090" width="1467.206" height="376.360" stroke-width="0"><rect x="245.457" y="402.266" width="733.603" height="188.180" fill="#000"></rect><use xlink:href="#def-cede6645-1651-4fb7-851e-6aa7f91f4969" fill="#fff" stroke="#fff"></use><use xlink:href="#def-708fe17a-ce17-4809-8434-08ed1d8f5f0d" fill="#fff" stroke="#fff"></use></mask></defs><g mask="url(#mask-27f7c461-4a29-41de-baf9-1dfbdd6ccf9e)"><rect x="13.155" y="392.104" width="215.536" height="215.792" fill="url(#gradient-d2bd19a3-6493-4900-bcbf-23c1a51ebedf)"></rect><g mask="url(#mask-1d606b63-3c1b-4257-bfef-fa92b3c65d42)"><rect x="13.155" y="392.104" width="215.536" height="215.792" fill="url(#gradient-0b9eb78c-dd2d-464c-a148-cdf6d0ae1b68)"></rect></g></g><g mask="url(#mask-17362315-bb07-41f3-9f59-7413bbe5253e)"><rect x="245.457" y="402.266" width="733.603" height="188.180" fill="#000000"></rect></g><g opacity="0"><rect fill="none" stroke="#fff" stroke-dasharray="11.07010739856802" stroke-dashoffset="0" stroke-width="1.8450178997613365" x="-263.063" y="10" width="1526.125" height="980"></rect><rect fill="none" stroke="#000" stroke-dasharray="11.07010739856802" stroke-dashoffset="11.07010739856802" stroke-width="1.8450178997613365" x="-263.063" y="10" width="1526.125" height="980"></rect></g><g opacity="0"><rect fill="none" stroke="#fff" stroke-dasharray="5.53505369928401" stroke-dashoffset="0" stroke-width="1.8450178997613365"></rect><rect fill="none" stroke="#000" stroke-dasharray="5.53505369928401" stroke-dashoffset="5.53505369928401" stroke-width="1.8450178997613365"></rect></g></svg>