<?xml version="1.0" standalone="no"?>
<!DOCTYPE svg PUBLIC "-//W3C//DTD SVG 20010904//EN"
 "http://www.w3.org/TR/2001/REC-SVG-20010904/DTD/svg10.dtd">
<svg version="1.0" xmlns="http://www.w3.org/2000/svg"
 width="516.000000pt" height="516.000000pt" viewBox="0 0 516.000000 516.000000"
 preserveAspectRatio="xMidYMid meet">
<metadata>
Created by potrace 1.11, written by Peter Selinger 2001-2013
</metadata>
<g transform="translate(0.000000,516.000000) scale(0.100000,-0.100000)"
fill="#000000" stroke="none">
<path d="M2328 4965 c-4 -4 -35 -11 -70 -16 -82 -12 -152 -25 -208 -39 -25 -6
-61 -15 -80 -20 -45 -11 -71 -19 -205 -68 -487 -176 -929 -537 -1206 -982 -53
-86 -165 -304 -179 -350 -5 -14 -23 -63 -40 -110 -32 -84 -42 -118 -61 -195
-6 -22 -15 -58 -20 -80 -11 -42 -21 -97 -41 -230 -16 -107 -16 -487 0 -595 25
-162 28 -174 62 -307 5 -21 12 -51 15 -68 4 -16 10 -39 15 -50 4 -11 17 -46
29 -77 50 -138 67 -178 112 -269 173 -348 402 -620 723 -858 146 -108 413
-259 516 -291 14 -5 63 -22 110 -40 47 -17 101 -35 120 -40 19 -5 71 -18 115
-29 249 -65 587 -88 815 -55 203 29 222 32 348 63 90 23 181 51 227 70 11 5
36 15 55 22 19 7 81 34 138 61 57 26 105 48 106 48 2 0 53 30 112 66 400 244
717 591 913 999 32 66 63 136 70 155 7 19 17 44 21 55 4 11 13 36 20 55 7 19
16 44 20 55 7 19 13 39 39 143 26 100 30 121 41 192 6 41 15 99 21 129 12 70
12 479 0 534 -5 23 -15 80 -21 127 -7 47 -19 110 -27 140 -8 30 -19 71 -23 90
-21 86 -33 124 -70 215 -4 11 -14 36 -21 55 -51 142 -176 365 -294 525 -237
320 -547 578 -883 736 -135 63 -339 140 -424 160 -21 5 -57 14 -80 20 -24 5
-65 14 -93 20 -27 5 -77 14 -110 20 -64 12 -597 24 -607 14z m587 -139 c155
-25 244 -47 430 -108 473 -155 908 -507 1180 -953 104 -170 245 -501 245 -574
0 -11 4 -22 9 -25 5 -3 11 -20 14 -38 3 -18 11 -53 17 -78 49 -197 53 -560 11
-845 -12 -84 -75 -317 -105 -394 -15 -36 -26 -68 -26 -72 0 -17 -119 -248
-169 -329 -229 -368 -566 -676 -951 -865 -170 -84 -453 -175 -610 -196 -226
-30 -657 -29 -790 2 -69 16 -122 29 -156 40 -17 5 -38 9 -47 9 -10 0 -25 4
-35 10 -9 5 -37 16 -62 24 -492 160 -921 500 -1208 957 -60 95 -172 319 -172
343 0 7 -3 16 -7 19 -7 8 -40 94 -53 142 -82 287 -93 371 -94 685 0 268 8 343
53 528 6 23 15 59 20 80 9 39 36 123 51 157 4 11 18 47 31 80 36 96 137 293
196 385 183 281 437 528 723 705 102 63 287 152 360 175 25 7 50 16 55 20 10
6 127 43 190 59 153 41 201 51 243 52 20 0 46 4 57 9 22 10 536 6 600 -4z"/>
<path d="M1121 3446 c-8 -10 -10 -247 -9 -877 l3 -864 89 -3 c65 -2 92 1 98
10 4 7 8 398 8 868 0 653 -3 859 -12 868 -17 17 -162 16 -177 -2z"/>
<path d="M1406 3444 c-20 -20 -23 -146 -3 -162 7 -6 92 -12 197 -14 174 -3
188 -5 241 -30 40 -18 65 -38 86 -69 37 -54 44 -81 50 -184 9 -149 -46 -264
-145 -306 -37 -16 -70 -19 -227 -19 -219 0 -215 2 -215 -99 0 -39 5 -72 12
-79 16 -16 403 -17 462 -1 77 21 165 70 204 114 45 51 60 81 91 178 17 51 17
323 0 374 -43 133 -99 207 -193 253 -87 43 -191 59 -383 60 -134 0 -164 -3
-177 -16z"/>
<path d="M2167 3453 c-17 -17 -9 -54 103 -435 11 -38 29 -101 41 -140 12 -40
25 -84 29 -98 4 -14 13 -45 20 -70 7 -25 16 -56 20 -70 4 -14 13 -45 20 -70 6
-25 16 -53 21 -62 5 -10 9 -27 9 -38 0 -11 4 -28 9 -38 5 -9 15 -37 21 -62 7
-25 16 -56 20 -70 4 -14 13 -45 20 -70 7 -25 16 -56 20 -70 4 -14 13 -45 20
-70 7 -25 17 -58 21 -75 5 -16 20 -70 34 -120 54 -191 55 -193 81 -199 41 -11
59 9 85 86 29 88 29 153 2 233 -11 33 -26 80 -33 105 -7 25 -20 70 -30 100
-10 30 -23 75 -30 100 -7 25 -16 56 -20 70 -4 14 -13 45 -20 70 -28 101 -33
116 -41 132 -5 10 -9 25 -9 35 0 9 -8 42 -19 72 -10 31 -24 76 -31 101 -7 25
-16 56 -20 70 -4 14 -18 59 -30 100 -12 41 -25 86 -30 100 -4 14 -29 101 -56
194 -26 92 -54 174 -62 182 -14 15 -152 21 -165 7z"/>
<path d="M3018 3443 c-9 -10 -18 -31 -21 -48 -3 -16 -10 -46 -16 -65 -21 -72
-33 -116 -37 -140 -3 -14 -9 -34 -14 -45 -5 -11 -11 -31 -14 -45 -2 -14 -10
-43 -16 -65 -6 -22 -15 -56 -20 -75 -8 -32 -15 -56 -39 -142 -5 -18 -19 -69
-31 -113 -12 -44 -25 -93 -30 -110 -42 -145 -52 -201 -42 -240 45 -181 60
-215 93 -215 13 0 21 12 29 43 6 23 15 56 20 72 5 17 17 57 26 90 8 33 20 74
24 90 5 17 18 66 30 110 12 44 26 95 31 113 24 86 31 110 39 142 8 33 15 58
41 148 6 20 14 52 17 70 4 18 12 33 17 33 10 0 14 -13 56 -168 10 -40 28 -108
40 -150 11 -43 25 -94 30 -113 6 -19 14 -51 19 -70 5 -19 14 -53 20 -75 6 -22
15 -56 20 -75 5 -19 14 -53 20 -75 6 -22 15 -56 20 -75 5 -19 13 -51 18 -70
10 -34 95 -363 112 -428 11 -45 28 -62 60 -62 36 0 44 10 75 105 31 91 29 115
-14 265 -35 121 -51 179 -61 220 -5 19 -13 51 -19 70 -19 68 -32 115 -41 150
-9 35 -23 88 -40 145 -5 17 -18 64 -29 105 -10 41 -27 102 -36 135 -9 33 -23
85 -31 115 -9 30 -31 116 -51 190 -19 74 -44 164 -56 200 l-22 65 -81 3 c-67
2 -83 0 -96 -15z"/>
<path d="M3892 3448 c-9 -12 -57 -165 -111 -358 -5 -19 -19 -66 -31 -105 -12
-38 -26 -83 -30 -100 -26 -91 -47 -162 -52 -175 -6 -16 -18 -60 -38 -130 -7
-25 -16 -54 -20 -65 -34 -87 -36 -133 -10 -220 6 -22 15 -53 19 -70 19 -68 30
-85 55 -85 30 0 32 4 86 195 35 127 93 326 102 355 15 50 24 79 38 130 7 25
20 70 30 100 10 30 23 75 30 100 7 25 20 70 30 100 10 30 23 75 30 100 27 97
33 116 41 135 5 11 10 38 11 60 l3 40 -86 3 c-61 2 -89 -1 -97 -10z"/>
</g>
</svg>
